<?xml version="1.0" encoding="UTF-8" standalone="no"?>
<!-- Created with Inkscape (http://www.inkscape.org/) -->

<svg
   xmlns:dc="http://purl.org/dc/elements/1.1/"
   xmlns:cc="http://creativecommons.org/ns#"
   xmlns:rdf="http://www.w3.org/1999/02/22-rdf-syntax-ns#"
   xmlns:svg="http://www.w3.org/2000/svg"
   xmlns="http://www.w3.org/2000/svg"
   xmlns:sodipodi="http://sodipodi.sourceforge.net/DTD/sodipodi-0.dtd"
   xmlns:inkscape="http://www.inkscape.org/namespaces/inkscape"
   width="256"
   height="256"
   viewBox="0 224 32 32"
   version="1.1"
   id="svg8"
   inkscape:version="0.92.3 (2405546, 2018-03-11)"
   sodipodi:docname="icon.svg">
  <defs
     id="defs2" />
  <sodipodi:namedview
     id="base"
     pagecolor="#bcbcbc"
     bordercolor="#666666"
     borderopacity="1.0"
     inkscape:pageopacity="1"
     inkscape:pageshadow="2"
     inkscape:zoom="4"
     inkscape:cx="-28.389017"
     inkscape:cy="211.26185"
     inkscape:document-units="px"
     inkscape:current-layer="layer1"
     showgrid="true"
     units="px"
     inkscape:pagecheckerboard="false"
     inkscape:window-width="2493"
     inkscape:window-height="1376"
     inkscape:window-x="67"
     inkscape:window-y="27"
     inkscape:window-maximized="1"
     fit-margin-top="0"
     fit-margin-left="0"
     fit-margin-right="0"
     fit-margin-bottom="0"
     viewbox-width="32"
     viewbox-height="32"
     viewbox-y="224">
    <inkscape:grid
       type="xygrid"
       id="grid4562"
       empspacing="4"
       enabled="true"
       spacingx="0.25"
       spacingy="0.25"
       originx="0"
       originy="1.1834716e-05" />
  </sodipodi:namedview>
  <metadata
     id="metadata5">
    <rdf:RDF>
      <cc:Work
         rdf:about="">
        <dc:format>image/svg+xml</dc:format>
        <dc:type
           rdf:resource="http://purl.org/dc/dcmitype/StillImage" />
        <dc:title></dc:title>
      </cc:Work>
    </rdf:RDF>
  </metadata>
  <g
     inkscape:label="Layer 1"
     inkscape:groupmode="layer"
     id="layer1"
     transform="translate(0,-64.533337)">
    <rect
       id="rect3721"
       width="32"
       height="11.999999"
       x="0"
       y="293.53333"
       style="fill:#eee107;fill-opacity:1;stroke-width:1.04446578" />
    <path
       style="fill:#0b265a;fill-opacity:1;stroke:none;stroke-width:0.77459711"
       d="m 13.75,5 v 5 H 13.5 v 7 h 1 V 10 H 14.25 V 5 Z m 2,0 v 12 h 0.5 V 5 Z m 1.75,0 v 5 h -0.25 v 7 h 1 V 10 H 18 V 5 Z"
       transform="translate(0,288.53332)"
       id="rect4532"
       inkscape:connector-curvature="0"
       sodipodi:nodetypes="ccccccccccccccccccccccc" />
    <rect
       id="rect3715"
       width="32"
       height="5.9999886"
       x="0"
       y="288.53333"
       style="fill:#ffbed2;fill-opacity:1;stroke-width:0.81649578" />
    <rect
       id="rect3717"
       width="32"
       height="16.000011"
       x="0"
       y="304.53333"
       style="fill:#714c00;fill-opacity:1;stroke-width:1.15470088" />
    <rect
       style="fill:#272727;fill-opacity:1;stroke:none;stroke-width:0.59408879"
       id="rect4530"
       width="0.5"
       height="6.0000052"
       x="15.75"
       y="304.53333" />
    <path
       style="fill:#000000;fill-opacity:1;stroke:none;stroke-width:1px;stroke-linecap:butt;stroke-linejoin:miter;stroke-opacity:1"
       d="m 14,317.53332 c 0,0 0,1 2,1 2,0 2,-1 2,-1 l 12,-1 -5,-7 h -0.25 l -0.75,-1 h -0.25 l -0.75,-1 -7,3 -7,-3 -0.75,1 H 8 l -0.75,1 H 7 l -5,7 z"
       id="path3723"
       inkscape:connector-curvature="0"
       sodipodi:nodetypes="csccccccccccccccc" />
    <path
       style="fill:#000000;fill-opacity:1;stroke:none"
       d="m 16.5,1.5 v 0.25 h 0.25 v 1 h -1 V 2.5 H 16 V 2.25 H 14 V 2.5 h 0.25 V 3 H 13.5 V 2.75 H 12 V 3 h 0.25 v 0.25 h 1 V 3.5 H 13.5 V 4 h 0.25 v 2 h 0.5 V 4 h 1.5 v 2 h 0.5 V 4 H 17.5 V 6 H 18 V 4 h 0.25 V 3.5 H 18.5 V 3.25 H 18 v -0.5 h 1.5 V 2.5 H 18 V 1.75 h 0.25 V 1.5 Z"
       id="rect4540"
       transform="translate(0,288.53332)"
       inkscape:connector-curvature="0"
       sodipodi:nodetypes="ccccccccccccccccccccccccccccccccccccccccccccccc" />
  </g>
</svg>
